HIERARCHY
ROOT Hips
{
	OFFSET 0.000000 0.000000 0.000000 
	CHANNELS 6 Xposition Yposition Zposition Zrotation Yrotation Xrotation
	JOINT LeftUpLeg
	{
		OFFSET 1.363060 -1.794630 0.839290 
		CHANNELS 3 Zrotation Yrotation Xrotation
		JOINT LeftLeg
		{
			OFFSET 2.448110 -6.726130 0.000000 
			CHANNELS 3 Zrotation Yrotation Xrotation
			JOINT LeftFoot
			{
				OFFSET 2.562200 -7.039590 0.000000 
				CHANNELS 3 Zrotation Yrotation Xrotation
				JOINT LeftToeBase
				{
					OFFSET 0.157640 -0.433110 2.322550 
					CHANNELS 3 Zrotation Yrotation Xrotation
					End Site
					{
						OFFSET 0.000000 0.000000 0.000000 
					}
				}
			}
		}
	}
	JOINT RightUpLeg
	{
		OFFSET -1.305520 -1.794630 0.839290 
		CHANNELS 3 Zrotation Yrotation Xrotation
		JOINT RightLeg
		{
			OFFSET -2.542530 -6.985550 0.000000 
			CHANNELS 3 Zrotation Yrotation Xrotation
			JOINT RightFoot
			{
				OFFSET -2.568260 -7.056230 0.000000 
				CHANNELS 3 Zrotation Yrotation Xrotation
				JOINT RightToeBase
				{
					OFFSET -0.164730 -0.452590 2.363150 
					CHANNELS 3 Zrotation Yrotation Xrotation
					End Site
					{
						OFFSET 0.000000 0.000000 0.000000 
					}
				}
			}
		}
	}
	JOINT Spine
	{
		OFFSET 0.028270 2.035590 -0.193380 
		CHANNELS 3 Zrotation Yrotation Xrotation
		JOINT Spine1
		{
			OFFSET 0.056720 2.048850 -0.042750 
			CHANNELS 3 Zrotation Yrotation Xrotation
			JOINT Neck1
			{
				OFFSET -0.054170 1.746240 0.172020 
				CHANNELS 3 Zrotation Yrotation Xrotation
				JOINT Head
				{
					OFFSET 0.104070 1.761360 -0.123970 
					CHANNELS 3 Zrotation Yrotation Xrotation
					End Site
					{
						OFFSET 0.000000 0.000000 0.000000 
					}
				}
			}
			JOINT LeftArm
			{
				OFFSET 3.362410 1.200890 -0.311210 
				CHANNELS 3 Zrotation Yrotation Xrotation
				JOINT LeftForeArm
				{
					OFFSET 4.983000 -0.000000 -0.000000 
					CHANNELS 3 Zrotation Yrotation Xrotation
					JOINT LeftHand
					{
						OFFSET 3.483560 -0.000000 -0.000000 
						CHANNELS 3 Zrotation Yrotation Xrotation
						JOINT LeftHandIndex1
						{
							OFFSET 0.715260 -0.000000 -0.000000 
							CHANNELS 3 Zrotation Yrotation Xrotation
							End Site
							{
								OFFSET 0.000000 0.000000 0.000000 
							}
						}
					}
				}
			}
			JOINT RightArm
			{
				OFFSET -3.136600 1.374050 -0.404650 
				CHANNELS 3 Zrotation Yrotation Xrotation
				JOINT RightForeArm
				{
					OFFSET -5.241900 -0.000000 -0.000000 
					CHANNELS 3 Zrotation Yrotation Xrotation
					JOINT RightHand
					{
						OFFSET -3.444170 -0.000000 -0.000000 
						CHANNELS 3 Zrotation Yrotation Xrotation
						JOINT RightHandIndex1
						{
							OFFSET -0.622530 -0.000000 -0.000000 
							CHANNELS 3 Zrotation Yrotation Xrotation
							End Site
							{
								OFFSET 0.000000 0.000000 0.000000 
							}
						}
					}
				}
			}
		}
	}
}
MOTION
Frames: 7
Frame Time: 0.041667
9.974140 17.870812 10.122671 -178.321302 -3.669357 -152.276963 -23.453665 -18.285323 -18.060332 -1.355265 3.905660 8.336896 0.791235 -1.013292 -17.223705 4.618600 -12.941000 -39.148000 29.800478 21.520862 -19.512569 1.255295 -5.083832 10.638252 -1.165110 -1.317421 -22.585307 -4.715200 13.055700 -39.577400 2.077489 -1.536866 -6.261302 0.598001 -1.579938 11.585620 13.254260 -4.584563 -2.065396 2.959800 -2.918800 -3.584400 -106.868126 -5.674086 12.716023 8.824089 -8.301226 -0.786802 -1.553139 1.588214 16.611635 -7.125000 0.000000 0.000000 98.711069 -0.024894 10.263541 -12.321040 21.962992 -3.186132 0.639631 4.197968 -0.375621 7.125000 0.000000 0.000000 
9.973154 17.869061 10.127815 -178.350966 -3.733437 -152.293038 -23.466917 -18.439665 -18.010114 -1.351066 3.912199 8.351607 0.782791 -1.187429 -17.365268 4.123100 -12.322500 -36.882500 29.790666 21.581177 -19.315261 1.264084 -4.992698 10.436415 -1.163074 -1.384022 -22.555304 -4.629900 12.954500 -39.198500 2.008642 -1.559510 -6.204731 0.214677 -1.587711 11.759670 12.287842 -4.717156 -2.470757 2.399500 -3.038000 -3.935400 -106.656001 -5.744596 12.806020 8.904030 -8.441763 -0.806991 -1.595157 1.611269 16.259720 -7.125000 0.000000 0.000000 99.001928 0.165257 10.280734 -12.227854 21.834335 -3.140694 0.625865 4.138115 -0.400346 7.125000 0.000000 0.000000 
9.972498 17.869389 10.132412 -178.333043 -3.696253 -152.282400 -23.449202 -18.542683 -18.065338 -1.356139 3.958319 8.447992 0.808895 -0.976093 -17.404268 4.325600 -12.581500 -37.821600 29.782346 21.597167 -19.304247 1.265554 -4.967718 10.369415 -1.154912 -1.373566 -22.476571 -4.576800 12.890800 -38.961000 1.930353 -1.537505 -6.154496 -0.112896 -1.586855 11.925842 12.005945 -4.379522 -1.626207 2.282000 -2.770400 -3.610400 -106.406304 -5.851483 13.135956 8.972365 -8.540929 -0.822783 -1.582711 1.565955 15.635266 -7.125000 0.000000 0.000000 99.262477 0.373283 10.203807 -12.117840 21.698111 -3.090580 0.601728 4.093814 -0.353388 7.125000 0.000000 0.000000 
9.971513 17.868842 10.137228 -178.309472 -3.670104 -152.270927 -23.460983 -18.492074 -18.115674 -1.357639 3.975296 8.487573 0.817321 -0.863760 -17.355039 4.637300 -12.963400 -39.231500 29.763537 21.611186 -19.355576 1.264573 -4.975148 10.368907 -1.146542 -1.347877 -22.405361 -4.544900 12.852200 -38.817500 1.810141 -1.451450 -6.090915 -0.624100 -1.526447 12.122313 12.235998 -4.980162 -2.703091 2.380800 -3.201200 -4.178300 -106.008704 -6.003359 13.834534 9.050488 -8.667429 -0.840090 -1.585523 1.481892 14.677582 -7.125000 0.000000 0.000000 99.691025 0.525935 10.251795 -12.105127 21.693594 -3.078935 0.535063 4.042023 -0.333910 7.125000 0.000000 0.000000 
9.971075 17.868733 10.141826 -178.271734 -3.677058 -152.289026 -23.470327 -18.294343 -18.138705 -1.351065 3.945434 8.422370 0.785793 -1.044153 -17.217276 4.716400 -13.057100 -39.582600 29.802322 21.605948 -19.334824 1.265147 -4.960992 10.334437 -1.142133 -1.334260 -22.358664 -4.540200 12.846600 -38.796800 1.700335 -1.455908 -6.042621 -1.145474 -1.529428 12.255719 11.944772 -4.755072 -1.880283 2.270000 -2.988000 -3.903900 -105.636870 -5.990274 14.592767 9.155202 -8.817636 -0.864214 -1.620464 1.409191 13.890733 -7.125000 0.000000 0.000000 100.122749 0.644695 10.362626 -12.140687 21.798994 -3.108368 0.559793 4.032393 -0.208368 7.125000 0.000000 0.000000 
9.970746 17.870046 10.145766 -178.260720 -3.704286 -152.269092 -23.475915 -18.150640 -18.221139 -1.344351 3.931974 8.384609 0.755631 -1.202439 -17.075905 4.869700 -13.235500 -40.256700 29.808156 21.595682 -19.367900 1.266504 -4.944111 10.278421 -1.136283 -1.299361 -22.305012 -4.519800 12.821700 -38.704800 1.709965 -1.462480 -6.041590 -1.143296 -1.521008 12.283824 12.262681 -5.079620 -2.746377 2.395900 -3.261500 -4.271900 -105.676034 -6.052704 14.855719 9.211690 -8.913835 -0.879906 -1.617047 1.395756 13.681635 -7.125000 0.000000 0.000000 100.123987 0.678589 10.330995 -12.151743 21.804313 -3.111242 0.554971 4.048172 -0.052063 7.125000 0.000000 0.000000 
9.969761 17.870703 10.147736 -178.266969 -3.703856 -152.251107 -23.479789 -18.165623 -18.246223 -1.343445 3.935964 8.386442 0.751454 -1.213707 -17.046794 5.001800 -13.385800 -40.830300 29.786146 21.590822 -19.383723 1.267313 -4.928027 10.231867 -1.133088 -1.277120 -22.273454 -4.503400 12.801800 -38.630900 1.710224 -1.482093 -6.035524 -1.151624 -1.537201 12.318453 12.134966 -4.906961 -2.158434 2.337700 -3.104500 -4.047500 -105.713851 -6.125199 15.029014 9.279645 -9.019308 -0.900271 -1.588451 1.398179 13.427004 -7.125000 0.000000 0.000000 100.133413 0.785291 10.210832 -12.097617 21.724460 -3.085657 0.557533 4.040527 0.135864 7.125000 0.000000 0.000000 
